<?xml version="1.0" encoding="UTF-8" standalone="no"?>
<svg
   xmlns:dc="http://purl.org/dc/elements/1.1/"
   xmlns:cc="http://creativecommons.org/ns#"
   xmlns:rdf="http://www.w3.org/1999/02/22-rdf-syntax-ns#"
   xmlns:svg="http://www.w3.org/2000/svg"
   xmlns="http://www.w3.org/2000/svg"
   xmlns:sodipodi="http://sodipodi.sourceforge.net/DTD/sodipodi-0.dtd"
   xmlns:inkscape="http://www.inkscape.org/namespaces/inkscape"
   xml:space="preserve"
   height="400"
   width="400"
   version="1.1"
   id="svg2"
   inkscape:version="0.48.4 r9939"
   sodipodi:docname="logo.svg"
   inkscape:export-filename="/home/julien/GIT/gueydatmo/logo.png"
   inkscape:export-xdpi="90"
   inkscape:export-ydpi="90"><metadata
     id="metadata29"><rdf:RDF><cc:Work
         rdf:about=""><dc:format>image/svg+xml</dc:format><dc:type
           rdf:resource="http://purl.org/dc/dcmitype/StillImage" /><dc:title></dc:title></cc:Work></rdf:RDF></metadata><sodipodi:namedview
     pagecolor="#000000"
     bordercolor="#666666"
     borderopacity="1"
     objecttolerance="10"
     gridtolerance="10"
     guidetolerance="10"
     inkscape:pageopacity="1"
     inkscape:pageshadow="2"
     inkscape:window-width="1920"
     inkscape:window-height="964"
     id="namedview27"
     showgrid="false"
     inkscape:zoom="0.88771118"
     inkscape:cx="489.24114"
     inkscape:cy="177.72922"
     inkscape:window-x="0"
     inkscape:window-y="0"
     inkscape:window-maximized="1"
     inkscape:current-layer="svg2" /><defs
     id="defs4"><clipPath
       id="a"
       clipPathUnits="userSpaceOnUse"><path
         d="M 0,841.89 H 595.28 V 0 H 0 v 841.89 z"
         id="path7"
         inkscape:connector-curvature="0" /></clipPath></defs><g
     transform="matrix(0.75415496,0,0,-0.70455878,-42.247315,512.35357)"
     id="g9"><g
       clip-path="url(#a)"
       id="g11"><g
         id="souligne"
         style="fill:#e1ac29"><g
           transform="translate(567.44,504.97)"
           id="g14"><path
             d="m 0,0 c 0,0 -321.55,10.541 -483.04,-139.83 l 19.414,-12.88 c 0,0 118.69,29.636 222.77,-27.739 l -4.348,18.029 c 0,0 -88.719,50.678 -202.32,30.487 0,0 122.52,117.96 447.51,131.93"
             id="path16"
             inkscape:connector-curvature="0" /></g><g
           transform="translate(246.87,344.64)"
           id="g18"><path
             d="m 0,0 c 0,0 65.709,-17.062 74.556,-25.912 l -6.319,-11.371 c 0,0 -1.262,13.27 -68.237,37.283"
             id="path20"
             inkscape:connector-curvature="0" /></g></g><g
         id="trefle"
         style="fill:#ffffff"><g
           transform="translate(297.69,587.09)"
           id="g23"><path
             d="m 0,0 1.641,-6.029 c 0,0 -3.836,12.609 -28.502,11.511 0,0 21.38,4.934 26.861,-5.482 m -89.79,-94.732 c 0,0 5.541,32.782 19.076,29.711 0,0 -12.504,-6.396 -19.076,-29.711 m 121.9,29.657 c 0,0 4.341,-28.931 -10.849,-33.992 0,0 7.232,9.399 10.849,33.992 m 67.836,62.348 c 0,0 -30.94,53.223 -81.445,36.882 0,0 36.122,48.273 -9.815,77.174 -45.942,28.913 -225.1,-75.962 -140.84,-157.93 l 1.438,-1.628 c 0,0 -50.497,-28.677 -49.876,-87.736 0.637,-60.941 44.396,-105.71 103.92,-82.53 39.66,15.44 68.205,50.263 67.583,116.67 0,0 -0.455,11.061 1.295,13.43 4.301,5.816 13.325,-12.535 27.733,-14.147 14.413,-1.614 17.678,19.883 17.524,31.579 -0.153,11.681 17.595,19.252 17.595,19.252 0,0 -1.548,0.632 -15.295,1.183 -13.814,0.556 -9.232,30.566 -25.153,30.261 -12.869,-0.247 -15.434,-19.117 -27.767,-30.062 -4.785,-4.247 -10.894,10.61 -5.309,14.87 10.354,7.921 31.836,15.634 23.014,36.281 -5.126,11.994 -28.129,9.054 -44.195,10.91 -11.869,1.376 -23.679,24.513 -23.679,24.513 l -0.416,-21.723 c -0.407,-21.729 -29.38,-38.536 -26.868,-51.165 2.52,-12.618 12.451,-18.614 27.07,-12.79 14.625,5.824 17.841,-5.023 17.841,-5.023 0,0 0.853,-9.919 -4.089,-15.477 -4.937,-5.572 -18.913,7.499 -18.913,7.499 -22.799,6.315 -27.647,-33.489 -26.795,-43.405 0.858,-9.91 -10.915,-22.344 -10.915,-22.344 l 10.273,0.03 c 10.269,0.025 25.536,-17.103 41.817,-13.988 16.282,3.118 11.423,37.925 14.382,42.5 8.717,13.471 11.722,-2.114 11.722,-2.114 0,0 14.368,-70.778 -47.713,-99.255 -51.551,-23.646 -112.09,49.183 -78.46,112.07 0,0 19.7,36.031 46.021,33.834 0,0 -54.057,26.93 -20.272,82.419 33.796,55.49 121.83,97.56 143.07,67.061 C 35.703,63.873 -1.136,19.022 -1.136,19.022 c 0,0 56.467,28.596 87.588,-26.795 31.115,-55.393 26.737,-169.83 -61.867,-236.78 l 3.12,-18.975 c 0,0 141.14,117 72.276,260.79"
             id="path25"
             inkscape:connector-curvature="0" /></g></g></g></g><flowRoot
     xml:space="preserve"
     id="flowRoot3017"
     style="font-size:40px;font-style:normal;font-weight:normal;line-height:125%;letter-spacing:0px;word-spacing:0px;fill:#ffffff;fill-opacity:1;stroke:none;font-family:Sans"
     transform="translate(-387.51343,-35.255889)"><flowRegion
       id="flowRegion3019"><rect
         id="rect3021"
         width="399.90488"
         height="128.42014"
         x="389.76642"
         y="324.85962"
         style="fill:#ffffff" /></flowRegion><flowPara
       id="flowPara3023"
       style="font-size:72px;font-style:normal;font-variant:normal;font-weight:normal;font-stretch:normal;text-align:center;text-anchor:middle;font-family:Droid Sans;-inkscape-font-specification:Droid Sans">gueyd<flowSpan
   style="font-size:72px;font-weight:bold;text-align:center;text-anchor:middle;-inkscape-font-specification:Droid Sans Bold"
   id="flowSpan3046">atmo</flowSpan></flowPara></flowRoot></svg>